<svg width="116" height="15" viewBox="0 0 116 15" fill="none" xmlns="http://www.w3.org/2000/svg">
<path d="M3.44204 14.623H0V3.9273C0.00160082 3.44465 0.0900105 2.9664 0.260832 2.51632C0.429502 2.05894 0.674923 1.63503 0.986102 1.26356C1.29273 0.897491 1.66345 0.592861 2.07933 0.365239C2.49812 0.134981 2.96701 0.0161177 3.4427 0.0196257C3.93134 0.0157957 4.41212 0.145189 4.83536 0.394435C5.2667 0.65012 5.65789 0.970576 5.99579 1.34504C6.34657 1.73034 6.65472 2.15388 6.91469 2.60799C7.16124 3.03238 7.37782 3.47418 7.56277 3.93001L10.541 11.3312L13.5772 3.93001C13.7608 3.47535 13.974 3.03369 14.2153 2.60799C14.4683 2.15187 14.7722 1.72716 15.1209 1.34233C15.4588 0.967852 15.85 0.647396 16.2813 0.39172C16.7109 0.140768 17.1983 0.0113769 17.6933 0.0169091C18.1854 0.0116363 18.6719 0.123216 19.1145 0.342831C19.5354 0.551883 19.9082 0.849469 20.2084 1.21603C20.5108 1.58863 20.7464 2.01271 20.9044 2.4688C21.071 2.93696 21.1561 3.43125 21.1559 3.92933V14.623H17.6959V3.9273L14.2719 11.5641C14.0394 12.0892 13.8105 12.566 13.5852 12.9947C13.3827 13.3897 13.1292 13.7551 12.8313 14.0811C12.5585 14.3732 12.2293 14.6044 11.8645 14.7601C11.4968 14.9199 11.0549 14.9998 10.539 14.9998C10.108 15.0049 9.68252 14.8999 9.30142 14.6943C8.92219 14.4865 8.57658 14.2204 8.27673 13.9053C7.95953 13.5725 7.68355 13.2012 7.45498 12.7998C7.22112 12.3954 7.01115 11.9771 6.82619 11.5471L3.44204 3.9273V14.623Z" fill="#049fff"/>
<path d="M44.2522 0.0195823V3.78874H28.7993C28.4125 3.78874 28.1708 3.91232 28.0741 4.15947C27.9756 4.42737 27.9282 4.71199 27.9343 4.99804V5.46588H44.2556V9.23503H27.9536V9.56774C27.9446 9.87062 27.9939 10.1724 28.0987 10.4559C28.1954 10.6926 28.4307 10.811 28.8046 10.811H44.2556V14.6195H28.7993C28.164 14.6274 27.5327 14.517 26.9362 14.2936C26.3936 14.0883 25.8994 13.7688 25.4857 13.3559C25.0739 12.9397 24.7541 12.4385 24.5475 11.8859C24.3223 11.2787 24.2108 10.6338 24.2188 9.98465V4.69657C24.2153 4.07067 24.3335 3.45028 24.5668 2.8714C24.7875 2.31624 25.1164 1.81264 25.5336 1.39117C25.9524 0.972598 26.4444 0.637943 26.9841 0.404578C27.5583 0.15729 28.1761 0.0329537 28.7993 0.039273L44.2522 0.0195823Z" fill="#049fff"/>
<path d="M47.3183 0.07947H67.6039V3.76918H59.2865V14.6231H55.6123V3.76918H47.3183V0.07947Z" fill="#049fff"/>
<path d="M87.7594 0C88.7003 0 89.4287 0.11181 89.9446 0.335428C90.4605 0.559047 90.8375 0.875916 91.0757 1.28603C91.3139 1.69344 91.4525 2.18028 91.4916 2.74657C91.5306 3.31286 91.5499 3.93121 91.5495 4.60161C91.5495 5.24621 91.5302 5.84804 91.4916 6.40709C91.4652 6.92315 91.3229 7.42612 91.0757 7.87713C90.8371 8.29857 90.46 8.63083 89.9446 8.87391C89.4291 9.11699 88.7007 9.23876 87.7594 9.23921H74.495V14.6264H70.6664V0H87.7594ZM74.495 3.76915V5.6242H86.7554C87.0002 5.6242 87.1936 5.57146 87.3356 5.46599C87.4772 5.36078 87.5822 5.21206 87.635 5.04161C87.6961 4.84669 87.7319 4.64443 87.7415 4.44001C87.7543 4.21639 87.7608 3.99277 87.7608 3.76915H74.495Z" fill="#049fff"/>
<path d="M105.772 14.7017H94.6119V0.0195823H98.4405V5.52563H106.195C106.806 5.52416 107.411 5.6484 107.974 5.89093C109.086 6.35876 109.981 7.24073 110.479 8.35776C110.732 8.92439 110.86 9.54056 110.856 10.1632C110.861 10.7978 110.715 11.4242 110.431 11.9884C110.152 12.5412 109.768 13.0312 109.3 13.4292C108.817 13.8374 108.267 14.1547 107.675 14.3663C107.065 14.5897 106.42 14.7031 105.772 14.7017ZM98.4411 10.9937H107.066V9.13658H98.4411V10.9937ZM116 0.0216193V14.7411H112.5V0.0195823L116 0.0216193Z" fill="#049fff"/>
</svg>
